<svg xmlns="http://www.w3.org/2000/svg" viewBox="0 0 512 512" role="img" aria-labelledby="title desc">
  <title id="title">QuickNotes PWA icon</title>
  <desc id="desc">Icono de la aplicación QuickNotes para instalación PWA.</desc>
  <defs>
    <linearGradient id="bg" x1="72" y1="56" x2="448" y2="448" gradientUnits="userSpaceOnUse">
      <stop offset="0" stop-color="#60a5fa" />
      <stop offset="0.52" stop-color="#2563eb" />
      <stop offset="1" stop-color="#0f172a" />
    </linearGradient>
    <linearGradient id="paper" x1="168" y1="144" x2="352" y2="392" gradientUnits="userSpaceOnUse">
      <stop offset="0" stop-color="#f8fafc" />
      <stop offset="1" stop-color="#dbeafe" />
    </linearGradient>
  </defs>
  <rect x="24" y="24" width="464" height="464" rx="112" fill="url(#bg)" />
  <rect x="148" y="116" width="216" height="280" rx="32" fill="url(#paper)" />
  <path d="M332 116v52c0 14 11 26 25 26h43z" fill="#bfdbfe" />
  <path d="M332 116h-8c0 0 0 78 0 78 0 14 11 26 25 26h43v-8c0-54-44-96-60-96z" fill="#eff6ff" opacity="0.9" />
  <rect x="174" y="168" width="108" height="18" rx="9" fill="#1d4ed8" opacity="0.9" />
  <rect x="174" y="208" width="140" height="14" rx="7" fill="#93c5fd" />
  <rect x="174" y="244" width="116" height="14" rx="7" fill="#93c5fd" />
  <rect x="174" y="280" width="128" height="14" rx="7" fill="#93c5fd" />
  <rect x="174" y="316" width="96" height="14" rx="7" fill="#93c5fd" />
  <circle cx="208" cy="355" r="18" fill="#22c55e" />
  <path d="m199 355 6 6 12-14" fill="none" stroke="#f8fafc" stroke-linecap="round" stroke-linejoin="round" stroke-width="8" />
</svg>